<svg width="39" height="40" viewBox="0 0 39 40" fill="none" xmlns="http://www.w3.org/2000/svg">
<path d="M8.8049 36.4769C9.06218 36.6171 9.35105 36.6813 9.64051 36.6625C9.92996 36.6437 10.2091 36.5426 10.4479 36.3702L31.124 21.3702C31.3353 21.2168 31.508 21.0121 31.6272 20.7735C31.7465 20.5349 31.8088 20.2695 31.8088 20.0002C31.8088 19.7309 31.7465 19.4655 31.6272 19.2269C31.508 18.9883 31.3353 18.7836 31.124 18.6302L10.4479 3.63021C10.2095 3.45597 9.93009 3.35364 9.64005 3.33438C9.35001 3.31513 9.0605 3.37968 8.80307 3.52101C8.54564 3.66234 8.33018 3.87501 8.18018 4.13585C8.03017 4.39669 7.95139 4.69567 7.9524 5.00021V35.0002C7.95235 35.3044 8.03177 35.6029 8.18205 35.8632C8.33232 36.1235 8.54772 36.3357 8.8049 36.4769ZM11.1334 8.18187L27.4246 20.0002L11.1334 31.8185V8.18187Z" fill="white"/>
</svg>
