<svg width="67" height="67" viewBox="0 0 67 67" fill="none" xmlns="http://www.w3.org/2000/svg">
<path d="M46.3416 16.2475C44.4333 14.0689 43.3817 11.2712 43.3824 8.375H34.7562V42.9917C34.6897 44.8649 33.8988 46.6393 32.5501 47.9411C31.2015 49.2429 29.4002 49.9706 27.5258 49.9708C23.5616 49.9708 20.2674 46.7325 20.2674 42.7125C20.2674 37.9108 24.9016 34.3096 29.6754 35.7892V26.9675C20.0441 25.6833 11.6133 33.165 11.6133 42.7125C11.6133 52.0088 19.3183 58.625 27.4979 58.625C36.2637 58.625 43.3824 51.5063 43.3824 42.7125V25.1529C46.8804 27.665 51.0801 29.0128 55.3866 29.0054V20.3792C55.3866 20.3792 50.1383 20.6304 46.3416 16.2475Z" fill="black"/>
</svg>
